<svg width="39" height="39" viewBox="0 0 39 39" fill="none" xmlns="http://www.w3.org/2000/svg">
<path d="M36.8163 19.4875C36.8171 9.90527 29.067 2.14533 19.4944 2.14331C9.81855 2.1409 2.23656 9.82789 2.21802 19.6588C2.20028 29.0835 10.0117 36.8132 19.5488 36.8087C29.0581 36.8043 36.8159 29.0226 36.8163 19.4875ZM19.6149 1.0002C29.8293 1.04857 38.037 9.37201 37.9999 19.6471C37.9632 29.7687 29.5548 38.0204 19.3505 37.9502C9.13566 37.8801 0.956235 29.5506 1.00018 19.2646C1.04412 9.19385 9.44405 0.952636 19.6149 1.0002Z" stroke="white" stroke-miterlimit="10"/>
<path d="M15.3231 14.5672C15.1799 13.3051 15.0925 12.0879 14.8917 10.8895C14.6785 9.61945 14.0064 8.88223 13.1869 8.84071C12.327 8.79718 11.5603 9.50094 11.2934 10.79C10.804 13.1496 10.7544 15.5329 11.2704 17.8981C11.5502 19.1811 12.2444 19.8921 13.0506 19.88C13.8533 19.8676 14.6458 19.1122 14.8877 17.9215C15.1134 16.8098 15.1864 15.6667 15.3231 14.5672ZM20.0945 17.9751C20.0699 20.8216 19.6204 23.5754 18.2062 26.093C16.4772 29.1701 12.7846 30.5187 9.53739 29.2922C7.68825 28.5941 6.68649 26.9701 7.07066 25.2925C7.33431 24.1409 8.37397 23.3747 9.6164 23.4162C10.8286 23.4573 11.676 24.1393 11.8457 25.2022C11.9715 25.9882 11.653 26.5348 11.0217 26.9991C10.727 27.216 10.5633 27.6118 10.34 27.927C10.6936 28.1063 11.0298 28.3837 11.4027 28.4482C12.8934 28.7049 14.2411 27.9379 14.5515 26.4638C14.9232 24.6947 15.1283 22.8833 15.2807 21.0792C15.3456 20.3077 15.03 20.14 14.3838 20.5326C11.0161 22.5782 7.39075 19.9768 6.51475 16.5269C5.49928 12.5224 7.52579 8.80081 11.2999 7.84835C14.5555 7.02689 17.3625 8.33889 18.7928 11.3692C19.7796 13.4595 20.1017 15.6857 20.0945 17.9751V17.9751Z" stroke="white" stroke-miterlimit="10"/>
<path d="M25.826 23.0326C25.7744 23.0213 25.7232 23.0096 25.672 22.9983C24.8141 24.4933 23.9571 25.9883 23.0524 27.5643H25.826V23.0326ZM28.2133 27.5812C28.743 27.6103 29.1268 27.6308 29.5698 27.6558C29.5871 27.9323 29.6024 28.1802 29.6222 28.4946C29.1711 28.5188 28.7676 28.5401 28.3773 28.5607C28.0778 30.2951 28.2294 30.5797 29.5484 30.7587V31.3556C29.4775 31.3874 29.4094 31.4423 29.3408 31.4427C27.7787 31.4511 26.2162 31.4398 24.6545 31.4648C24.1183 31.4729 24.0401 31.2282 24.1506 30.7965C25.9715 30.4314 25.9715 30.4314 25.811 28.5655H22.1132C22.2974 27.8557 22.3349 27.2233 22.6138 26.7267C23.6563 24.8669 24.7782 23.0519 25.8691 21.2191C26.5742 20.0349 26.652 20.0015 28.2133 20.2949V27.5812Z" stroke="white" stroke-miterlimit="10"/>
<path d="M24.3403 16.2581C25.1489 17.1001 26.701 16.818 26.9928 15.691C27.2198 14.8147 27.2012 13.8466 27.1323 12.9312C27.0755 12.1754 26.4982 11.774 25.7294 11.7103C25.4218 11.6849 25.1139 11.6595 24.8063 11.6333C24.7873 11.5575 24.768 11.4817 24.7486 11.4055C24.9869 11.3253 25.2231 11.1835 25.4638 11.1758C26.4966 11.1419 26.9981 10.8364 27.1299 9.8118C27.2266 9.06168 27.19 8.24022 26.9819 7.51752C26.686 6.49009 25.3311 6.20874 24.4785 6.92984C24.6031 7.02657 24.7119 7.13178 24.8393 7.20634C25.3791 7.52356 25.5839 8.06207 25.2707 8.5252C25.0232 8.8928 24.487 9.20115 24.0411 9.26322C23.4889 9.3398 23.0934 8.92867 22.9874 8.32769C22.8314 7.44416 23.2337 6.62834 24.1351 6.24542C25.5646 5.63839 26.9928 5.72223 28.3276 6.52273C29.2084 7.05076 29.5494 7.92583 29.5111 8.92343C29.4741 9.89725 28.9359 10.576 28.0756 10.9928C27.7269 11.1609 27.35 11.2681 26.94 11.4201C27.427 11.6143 27.9015 11.7643 28.3397 11.986C29.3003 12.4737 29.857 13.2702 29.8409 14.3564C29.8244 15.4524 29.3197 16.3178 28.3135 16.8067C26.9723 17.4589 25.571 17.6088 24.1492 17.0989C23.2317 16.7692 22.7072 16.0243 22.7141 15.1577C22.7197 14.4576 23.0216 13.9522 23.7368 13.7772C24.3153 13.6349 24.7724 13.8486 25.0534 14.3589C25.3981 14.9872 25.2001 15.5056 24.6535 15.9276C24.5338 16.0187 24.4435 16.1473 24.3403 16.2581Z" stroke="white" stroke-miterlimit="10"/>
<path d="M26.4355 19.0412C25.318 19.0412 24.2001 19.0532 23.0835 19.0287C22.9029 19.0246 22.7263 18.8573 22.5477 18.7658C22.7243 18.6691 22.9001 18.4897 23.0766 18.4881C25.3374 18.4736 27.5989 18.4785 29.8596 18.5002C30.016 18.5014 30.1704 18.6711 30.3261 18.7622C30.1729 18.8541 30.0213 19.0222 29.8665 19.025C28.7228 19.048 27.5792 19.0375 26.4355 19.0375V19.0412Z" stroke="white" stroke-miterlimit="10"/>
</svg>
