<svg width="29" height="26" viewBox="0 0 29 26" fill="none" xmlns="http://www.w3.org/2000/svg">
<path d="M7.7523 8.80635C7.7523 8.80635 4.26929 5.98489 3.18934 3.18791C2.10938 0.390922 1.88913 -0.614826 0 0.366448C0 0.366448 2.11017 5.2736 7.18864 9.73789C7.18864 9.73789 10.4025 9.14976 17.0259 14.7903L17.9582 13.809C17.9582 13.809 12.905 8.70767 7.7523 8.80635Z" fill="#FAF3E4"/>
<path d="M19.3343 14.1887C18.8819 13.7798 18.2504 13.7411 17.9235 14.1027L17.2383 14.859C16.9115 15.2205 17.0125 15.8458 17.4649 16.2547L18.5567 17.2423C19.0572 16.6549 19.9208 15.6389 20.3613 15.1187L19.3343 14.1887Z" fill="#FAF3E4"/>
<path d="M28.0132 21.9063L25.7365 19.7969L28.3866 21.6861L29 20.7293C29 20.7293 24.0478 17.0189 22.7997 15.8347C22.5152 15.559 22.1621 15.3644 21.777 15.2713C21.3919 15.1781 20.9889 15.1898 20.6098 15.305L18.7057 17.4641C18.7057 17.4641 18.2541 18.3467 19.0396 19.328C20.6272 21.3127 24.8025 25.2899 24.8025 25.2899L25.4404 24.873L23.8505 22.9839L25.7838 24.603L26.2985 23.9896C26.2985 23.9896 22.6924 20.089 22.6671 20.0156C22.6419 19.9422 26.5677 23.8673 26.5677 23.8673L27.3532 22.8118L21.8816 17.9054L27.6714 22.5915L28.0132 21.9063Z" fill="#FAF3E4"/>
</svg>
