<svg width="59" height="84" viewBox="0 0 59 84" fill="none" xmlns="http://www.w3.org/2000/svg">
<path d="M0 61.103C0 66.9218 3.12074 72.2065 8.19914 76.1015V80.7572C8.19914 81.5195 8.50194 82.2505 9.0409 82.7894C9.57987 83.3284 10.3109 83.6312 11.0731 83.6312C11.8353 83.6312 12.5663 83.3284 13.1052 82.7894C13.6442 82.2505 13.947 81.5195 13.947 80.7572V79.5299C18.851 81.6773 24.1465 82.7859 29.5 82.7859C34.8535 82.7859 40.149 81.6773 45.053 79.5299V80.7572C45.053 81.5195 45.3558 82.2505 45.8948 82.7894C46.4337 83.3284 47.1647 83.6312 47.9269 83.6312C48.6891 83.6312 49.4201 83.3284 49.9591 82.7894C50.4981 82.2505 50.8009 81.5195 50.8009 80.7572V76.1015C55.8725 72.2065 59 66.9218 59 61.103C59 52.9884 56.3255 45.932 47.3623 42.2128H52.0688C52.8086 42.2128 53.5181 41.919 54.0412 41.3958C54.5643 40.8727 54.8582 40.1632 54.8582 39.4234C54.8582 38.6836 54.5643 37.9741 54.0412 37.451C53.5181 36.9279 52.8086 36.634 52.0688 36.634H6.93123C6.19144 36.634 5.48195 36.9279 4.95883 37.451C4.43572 37.9741 4.14183 38.6836 4.14183 39.4234C4.14183 40.1632 4.43572 40.8727 4.95883 41.3958C5.48195 41.919 6.19144 42.2128 6.93123 42.2128H11.6377C2.67108 45.932 0 52.9985 0 61.103ZM16.8412 41.1985H34.0847C34.3986 41.1985 34.6996 41.3232 34.9215 41.5451C35.1435 41.767 35.2681 42.068 35.2681 42.3819C35.2681 42.6957 35.1435 42.9967 34.9215 43.2187C34.6996 43.4406 34.3986 43.5653 34.0847 43.5653H16.8412C16.5273 43.5653 16.2263 43.4406 16.0044 43.2187C15.7825 42.9967 15.6578 42.6957 15.6578 42.3819C15.6578 42.068 15.7825 41.767 16.0044 41.5451C16.2263 41.3232 16.5273 41.1985 16.8412 41.1985Z" fill="white"/>
<path d="M23.0422 15.1067C24.5362 15.1067 25.9967 14.6636 27.2389 13.8335C28.4811 13.0034 29.4493 11.8235 30.0208 10.4431C30.5924 9.06272 30.7419 7.54383 30.4501 6.07853C30.1584 4.61323 29.4387 3.26735 28.382 2.21113C27.3253 1.15491 25.9791 0.435791 24.5137 0.144725C23.0482 -0.146341 21.5294 0.00373171 20.1492 0.575946C18.7691 1.14816 17.5897 2.11681 16.7601 3.3594C15.9305 4.60199 15.4881 6.06268 15.4888 7.55674C15.4915 9.55888 16.2882 11.4782 17.7043 12.8936C19.1203 14.309 21.04 15.1049 23.0422 15.1067ZM23.0422 2.03204C24.1348 2.03204 25.203 2.35606 26.1115 2.96312C27.02 3.57018 27.7282 4.43302 28.1463 5.44252C28.5645 6.45203 28.6739 7.56286 28.4607 8.63455C28.2475 9.70624 27.7213 10.6907 26.9487 11.4633C26.176 12.2359 25.1916 12.7621 24.12 12.9753C23.0483 13.1885 21.9374 13.079 20.9279 12.6609C19.9184 12.2427 19.0556 11.5346 18.4485 10.6261C17.8414 9.71757 17.5174 8.64942 17.5174 7.55674C17.5192 6.09204 18.1019 4.68786 19.1376 3.65216C20.1733 2.61647 21.5775 2.03383 23.0422 2.03204Z" fill="white"/>
<path d="M20.0264 7.89538C20.0264 5.0076 22.7722 4.65254 23.0901 4.62211C23.2011 4.61234 23.3091 4.58079 23.4079 4.52929C23.5067 4.47778 23.5944 4.40731 23.666 4.32191C23.7376 4.2365 23.7917 4.13782 23.8252 4.03152C23.8586 3.92521 23.8708 3.81336 23.861 3.70235C23.8513 3.59133 23.8197 3.48332 23.7682 3.3845C23.7167 3.28567 23.6463 3.19796 23.5609 3.12636C23.4754 3.05477 23.3768 3.00071 23.2705 2.96725C23.1642 2.93379 23.0523 2.9216 22.9413 2.93137C21.3486 3.07001 18.3357 4.28396 18.3357 7.88862C18.3357 8.11283 18.4248 8.32785 18.5833 8.48639C18.7419 8.64493 18.9569 8.73399 19.1811 8.73399C19.4053 8.73399 19.6203 8.64493 19.7789 8.48639C19.9374 8.32785 20.0264 8.11283 20.0264 7.88862V7.89538Z" fill="white"/>
<path d="M35.2679 22.9948C36.3599 22.9948 37.4274 22.671 38.3354 22.0643C39.2434 21.4576 39.951 20.5953 40.3689 19.5864C40.7868 18.5775 40.8962 17.4674 40.6831 16.3963C40.4701 15.3253 39.9442 14.3415 39.1721 13.5693C38.3999 12.7971 37.4161 12.2713 36.3451 12.0582C35.274 11.8452 34.1639 11.9545 33.155 12.3724C32.1461 12.7903 31.2838 13.498 30.6771 14.406C30.0704 15.314 29.7466 16.3815 29.7466 17.4735C29.7493 18.937 30.3318 20.3398 31.3667 21.3747C32.4016 22.4095 33.8044 22.9921 35.2679 22.9948ZM35.2679 13.4331C36.0671 13.4324 36.8487 13.6688 37.5136 14.1124C38.1784 14.5559 38.6968 15.1867 39.0031 15.9249C39.3095 16.6632 39.39 17.4757 39.2345 18.2596C39.079 19.0436 38.6944 19.7639 38.1295 20.3293C37.5645 20.8947 36.8446 21.2798 36.0608 21.436C35.2769 21.5922 34.4644 21.5123 33.7259 21.2066C32.9874 20.9009 32.3562 20.3831 31.9121 19.7186C31.4679 19.054 31.2309 18.2727 31.2309 17.4735C31.2353 16.4038 31.662 15.3792 32.418 14.6226C33.1741 13.8659 34.1983 13.4384 35.2679 13.4331Z" fill="white"/>
<path d="M32.4482 18.3396C32.5293 18.3396 32.6096 18.3235 32.6845 18.2924C32.7594 18.2613 32.8274 18.2156 32.8846 18.1581C32.9418 18.1006 32.987 18.0324 33.0178 17.9573C33.0485 17.8822 33.0641 17.8019 33.0637 17.7207C33.0637 15.6107 35.0723 15.3537 35.3056 15.3267C35.3895 15.3235 35.4719 15.3033 35.5478 15.2672C35.6237 15.2311 35.6914 15.18 35.7469 15.1169C35.8024 15.0539 35.8444 14.9801 35.8705 14.9003C35.8965 14.8204 35.9061 14.7361 35.8985 14.6524C35.8909 14.5688 35.8664 14.4875 35.8264 14.4136C35.7864 14.3398 35.7317 14.2748 35.6658 14.2227C35.5999 14.1707 35.5241 14.1326 35.443 14.1107C35.3618 14.0889 35.2771 14.0838 35.194 14.0958C34.0308 14.1972 31.8125 15.09 31.8125 17.7207C31.8125 17.8035 31.829 17.8853 31.8612 17.9615C31.8933 18.0377 31.9404 18.1067 31.9997 18.1644C32.059 18.2221 32.1292 18.2673 32.2062 18.2974C32.2832 18.3275 32.3655 18.3418 32.4482 18.3396Z" fill="white"/>
<path d="M26.6197 24.0531C25.8031 24.0531 25.0049 24.2953 24.3259 24.7489C23.647 25.2026 23.1178 25.8474 22.8053 26.6019C22.4928 27.3563 22.411 28.1865 22.5703 28.9874C22.7296 29.7883 23.1228 30.524 23.7002 31.1014C24.2777 31.6788 25.0133 32.072 25.8142 32.2313C26.6152 32.3907 27.4453 32.3089 28.1998 31.9964C28.9542 31.6839 29.599 31.1547 30.0527 30.4757C30.5064 29.7967 30.7485 28.9985 30.7485 28.1819C30.7476 27.0871 30.3124 26.0375 29.5383 25.2634C28.7641 24.4893 27.7145 24.054 26.6197 24.0531ZM26.6197 31.1982C26.0224 31.1982 25.4384 31.021 24.9418 30.689C24.4451 30.3571 24.0581 29.8853 23.8296 29.3333C23.6012 28.7813 23.5416 28.174 23.6583 27.5882C23.7751 27.0023 24.0631 26.4643 24.4857 26.0421C24.9084 25.6199 25.4468 25.3326 26.0327 25.2165C26.6187 25.1003 27.226 25.1606 27.7777 25.3897C28.3294 25.6187 28.8008 26.0063 29.1322 26.5033C29.4636 27.0004 29.6401 27.5845 29.6394 28.1819C29.6385 28.9822 29.32 29.7494 28.7538 30.3149C28.1876 30.8805 27.42 31.1982 26.6197 31.1982Z" fill="white"/>
<path d="M26.5653 25.6557C25.6929 25.7335 24.0495 26.3997 24.0495 28.3609C24.0441 28.4248 24.0519 28.4892 24.0726 28.55C24.0933 28.6107 24.1264 28.6665 24.1698 28.7137C24.2132 28.761 24.266 28.7988 24.3247 28.8246C24.3835 28.8504 24.4469 28.8637 24.5111 28.8637C24.5753 28.8637 24.6387 28.8504 24.6975 28.8246C24.7562 28.7988 24.809 28.761 24.8524 28.7137C24.8958 28.6665 24.9289 28.6107 24.9496 28.55C24.9703 28.4892 24.9782 28.4248 24.9727 28.3609C24.9727 26.7851 26.4741 26.589 26.6634 26.5721C26.7779 26.5523 26.8809 26.4902 26.9518 26.3981C27.0226 26.306 27.0563 26.1906 27.0461 26.0749C27.0359 25.9591 26.9825 25.8514 26.8966 25.7731C26.8107 25.6949 26.6985 25.6518 26.5823 25.6523L26.5653 25.6557Z" fill="white"/>
</svg>
