<svg width="48" height="22" viewBox="0 0 48 22" fill="none" xmlns="http://www.w3.org/2000/svg">
<path d="M10.9781 21.9468C12.8472 21.9486 14.6858 21.4729 16.3194 20.5648C17.9531 19.6567 19.3276 18.3462 20.3127 16.7578C21.2978 15.1694 21.8608 13.3556 21.9482 11.4886C22.0356 9.62156 21.6446 7.76314 20.8123 6.08961C21.9979 5.57744 24.4136 4.91 26.912 6.42434C25.7302 9.00173 25.5899 11.936 26.5205 14.6144C27.451 17.2928 29.3804 19.508 31.9057 20.7974C34.4309 22.0869 37.3567 22.3508 40.0719 21.534C42.7872 20.7172 45.0818 18.8829 46.4766 16.4143C47.8714 13.9457 48.2584 11.0336 47.5568 8.28636C46.8553 5.53911 45.1194 3.16916 42.7118 1.67152C40.3042 0.173875 37.4111 -0.335625 34.6367 0.24944C31.8623 0.834505 29.4212 2.46888 27.8234 4.8112C24.7846 2.99641 21.6451 3.62554 19.8303 4.48656C18.7209 2.97344 17.2421 1.76994 15.5353 0.990926C13.8284 0.211911 11.9503 -0.116609 10.0803 0.0367208C8.21037 0.190051 6.41091 0.820114 4.85373 1.86677C3.29655 2.91342 2.03362 4.34173 1.18551 6.01535C0.337401 7.68897 -0.0675905 9.55204 0.00919911 11.4267C0.0859887 13.3014 0.641995 15.1251 1.62414 16.7237C2.60629 18.3224 3.9818 19.6426 5.61937 20.5584C7.25694 21.4742 9.1019 21.955 10.9781 21.9549V21.9468ZM36.9054 1.84705C38.7092 1.84705 40.4725 2.38195 41.9723 3.3841C43.4722 4.38625 44.6411 5.81065 45.3314 7.47717C46.0217 9.14368 46.2023 10.9775 45.8504 12.7466C45.4985 14.5158 44.6299 16.1409 43.3544 17.4164C42.0789 18.6919 40.4538 19.5605 38.6847 19.9124C36.9155 20.2643 35.0817 20.0837 33.4152 19.3934C31.7487 18.7031 30.3243 17.5341 29.3221 16.0343C28.32 14.5345 27.7851 12.7712 27.7851 10.9674C27.7877 8.54932 28.7495 6.23108 30.4593 4.52127C32.1691 2.81146 34.4873 1.84972 36.9054 1.84705ZM10.9781 1.84705C12.7821 1.84665 14.5456 2.38121 16.0457 3.38312C17.5457 4.38503 18.715 5.80928 19.4056 7.47577C20.0962 9.14225 20.2771 10.9761 19.9255 12.7454C19.5738 14.5147 18.7053 16.14 17.4299 17.4157C16.1545 18.6914 14.5294 19.5602 12.7602 19.9123C10.991 20.2643 9.15707 20.0838 7.49044 19.3936C5.8238 18.7034 4.39928 17.5344 3.39704 16.0345C2.3948 14.5347 1.85985 12.7713 1.85985 10.9674C1.86252 8.54967 2.82399 6.23174 4.53336 4.52199C6.24274 2.81223 8.56045 1.85025 10.9781 1.84705Z" fill="white"/>
</svg>
