<svg width="69" height="56" viewBox="0 0 69 56" fill="none" xmlns="http://www.w3.org/2000/svg">
<path d="M34.1818 56C53.0609 56 68.3636 52.9065 68.3636 49.0886C68.3636 46.3218 60.3302 43.9356 48.7232 42.8391C48.4963 39.1177 47.8424 35.4348 46.7745 31.8627L45.5047 36.5839L46.1126 31.2804C45.9223 21.7158 39.011 9.21677 36.7384 6.66015C34.4659 4.10354 37.2128 0.600975 34.75 0.0328377C32.2871 -0.535299 28.5942 6.37608 29.0686 12.4381C29.543 18.5001 28.1227 21.8124 28.1227 21.8124C28.5005 24.4627 30.6793 28.5334 30.6793 28.5334C28.7845 26.7353 27.2705 22.8521 27.2705 22.8521C25.1854 27.7778 19.6944 32.5104 18.9359 38.9502C18.7714 40.2616 18.8767 41.5927 19.2456 42.8618C19.2456 42.8618 23.1032 49.7448 31.2929 49.7448C31.2929 49.7448 23.5066 51.4237 18.382 42.9527C7.45961 44.1061 0 46.4184 0 49.0829C0 52.9065 15.3027 56 34.1818 56ZM26.3927 41.4642C24.2622 37.919 22.5578 41.9841 22.5578 41.9841C22.5578 41.9841 24.1202 36.4504 26.3217 39.7342C28.5232 43.0181 29.8725 44.4043 32.9973 41.9841C36.122 39.5638 38.1105 37.6719 40.4171 40.9501C42.7237 44.2282 44.2889 40.0808 44.2889 40.0808C44.2889 40.0808 43.2549 45.356 40.4171 42.5011C37.5793 39.6462 35.1278 41.4273 33.2103 43.3533C31.2929 45.2793 28.9039 45.6372 26.3927 41.4642Z" fill="white"/>
</svg>
