<svg width="142" height="48" viewBox="0 0 142 48" fill="none" xmlns="http://www.w3.org/2000/svg">
<path d="M134.692 10.5698L10.2171 0.0256816C8.16898 -0.141089 6.13805 0.509234 4.56774 1.83467C2.99743 3.1601 2.01532 5.05298 1.83579 7.10003L0.0256813 28.4579C-0.141089 30.506 0.509245 32.537 1.83468 34.1073C3.16011 35.6776 5.05299 36.6597 7.10004 36.8393L131.575 47.3834C133.623 47.5501 135.654 46.8998 137.225 45.5744C138.795 44.2489 139.777 42.3561 139.957 40.309L141.767 18.9511C141.934 16.903 141.283 14.8721 139.958 13.3018C138.632 11.7314 136.739 10.7493 134.692 10.5698ZM139.189 18.7333L137.379 40.0912C137.259 41.4552 136.604 42.7164 135.558 43.5996C134.511 44.4829 133.158 44.9164 131.793 44.8057L7.31786 34.2668C6.63874 34.2118 5.97712 34.0235 5.37078 33.7128C4.76444 33.402 4.22526 32.9748 3.78407 32.4556C3.34288 31.9364 3.00833 31.3353 2.79951 30.6867C2.5907 30.0382 2.5117 29.3548 2.56707 28.6757L4.37195 7.31786C4.49076 5.95189 5.14565 4.68854 6.19339 3.8041C7.24112 2.91965 8.59644 2.48607 9.96298 2.59817L134.438 13.1423C135.117 13.1972 135.779 13.3855 136.385 13.6963C136.992 14.007 137.531 14.4342 137.972 14.9535C138.413 15.4727 138.748 16.0737 138.957 16.7223C139.165 17.3708 139.245 18.0542 139.189 18.7333Z" fill="white"/>
<path d="M9.62065 9.89554C10.1125 10.2242 10.6973 10.385 11.288 10.3542C11.8787 10.3233 12.4436 10.1024 12.8985 9.72438L8.50558 6.80959C8.33497 7.37549 8.35131 7.98131 8.55217 8.53719C8.75304 9.09307 9.12771 9.56941 9.62065 9.89554Z" fill="white"/>
<path d="M12.6599 5.3107C12.1673 4.9836 11.5823 4.8241 10.9918 4.85587C10.4013 4.88763 9.8368 5.10898 9.38209 5.48704L13.775 8.40183C13.946 7.83517 13.9299 7.2285 13.729 6.67173C13.5282 6.11495 13.1533 5.6377 12.6599 5.3107Z" fill="white"/>
<path d="M7.35416 31.7773C7.84652 32.1052 8.43169 32.2651 9.02239 32.2334C9.61309 32.2016 10.1777 31.9797 10.632 31.6009L6.23909 28.6861C6.06811 29.2528 6.08424 29.8594 6.28509 30.4162C6.48594 30.973 6.8608 31.4502 7.35416 31.7773Z" fill="white"/>
<path d="M10.3986 27.1872C9.9046 26.8613 9.31904 26.7025 8.72805 26.7343C8.13706 26.766 7.57187 26.9866 7.1156 27.3636L11.5085 30.2784C11.68 29.7122 11.6647 29.106 11.4648 28.5492C11.2649 27.9925 10.8911 27.515 10.3986 27.1872Z" fill="white"/>
<path d="M131.757 20.2425C132.249 20.5705 132.834 20.7304 133.425 20.6987C134.016 20.6669 134.58 20.445 135.035 20.0662L130.642 17.1514C130.471 17.7181 130.487 18.3247 130.688 18.8815C130.889 19.4383 131.263 19.9155 131.757 20.2425Z" fill="white"/>
<path d="M134.822 15.6525C134.329 15.3254 133.744 15.1659 133.154 15.1977C132.563 15.2295 131.999 15.4508 131.544 15.8289L135.937 18.7437C136.108 18.177 136.092 17.5703 135.891 17.0136C135.69 16.4568 135.315 15.9795 134.822 15.6525Z" fill="white"/>
<path d="M129.49 42.1191C129.983 42.447 130.568 42.607 131.159 42.5752C131.749 42.5434 132.314 42.3216 132.768 41.9427L128.375 39.0279C128.204 39.5946 128.22 40.2013 128.421 40.758C128.622 41.3148 128.997 41.7921 129.49 42.1191Z" fill="white"/>
<path d="M132.535 37.5342C132.041 37.2067 131.455 37.047 130.864 37.0788C130.273 37.1105 129.707 37.3321 129.252 37.7106L133.645 40.6202C133.817 40.0549 133.802 39.4492 133.602 38.8931C133.402 38.3371 133.027 37.8605 132.535 37.5342Z" fill="white"/>
<path d="M33.6392 15.0872C33.0429 14.8657 32.4173 14.7329 31.7825 14.693L30.5377 14.6204C29.9049 14.5945 29.3292 14.5634 28.821 14.5167C28.4475 14.4856 27.5814 14.3922 26.2277 14.2314L26.1603 14.2833L26.124 14.6878L26.1862 14.7501C26.5466 14.7826 26.9038 14.8433 27.2546 14.9316C27.3637 14.9612 27.4625 15.0205 27.5399 15.1028C27.5987 15.2164 27.6272 15.3432 27.6229 15.471C27.6229 15.6525 27.6229 16.0467 27.5659 16.6639L27.4517 18.2509L27.1302 22.0059L26.9798 23.7175C26.9533 24.0906 26.9014 24.4614 26.8242 24.8274C26.7999 24.9464 26.7423 25.0561 26.6582 25.1438C26.5528 25.206 26.4331 25.2399 26.3107 25.2423C25.974 25.2662 25.6361 25.2662 25.2994 25.2423L25.2268 25.289L25.1956 25.6935L25.2527 25.7661C26.6219 25.8336 27.3947 25.8802 27.5762 25.8958C27.7577 25.9114 28.5254 25.9943 29.8998 26.1551L29.9724 26.0981L30.0035 25.6935L29.9464 25.6365C29.5841 25.606 29.225 25.5453 28.8728 25.455C28.7661 25.4208 28.6697 25.3601 28.5928 25.2786C28.5318 25.1656 28.5014 25.0387 28.5046 24.9104C28.5012 24.5138 28.5185 24.1174 28.5565 23.7227L28.6809 22.1408L29.0181 18.4013C29.1529 16.8039 29.267 15.8081 29.35 15.388C29.8884 15.2625 30.4424 15.217 30.9941 15.2532C31.7328 15.2565 32.4398 15.5531 32.9598 16.0778C33.1666 16.3293 33.3195 16.6208 33.4087 16.934C33.4979 17.2472 33.5217 17.5755 33.4784 17.8983C33.4445 18.5598 33.1588 19.1834 32.6797 19.6409C32.4425 19.8557 32.1616 20.0165 31.8563 20.1123C31.551 20.2081 31.2285 20.2366 30.9111 20.1959C30.5787 20.1589 30.2516 20.084 29.9361 19.9728L29.8531 20.0506L29.9516 20.5693C30.3138 20.675 30.6856 20.7445 31.0615 20.7768C31.5011 20.8162 31.9441 20.7847 32.3737 20.6834C32.8349 20.5669 33.272 20.3703 33.6651 20.1025C34.0866 19.8242 34.4409 19.4557 34.7024 19.0237C34.9639 18.6053 35.1221 18.1306 35.164 17.6389C35.2257 17.0947 35.0994 16.5456 34.8061 16.083C34.5298 15.6381 34.122 15.2901 33.6392 15.0872Z" fill="white"/>
<path d="M44.1418 24.4436L44.0588 24.5006C44.0588 24.5732 43.9655 24.8533 43.8151 25.3305C43.7256 25.6404 43.6147 25.9436 43.4831 26.2381C43.1707 26.336 42.8458 26.3885 42.5185 26.3937C42.1865 26.3937 41.3619 26.347 40.0445 26.2329L38.39 26.0929L38.4678 24.6874C38.4885 24.3416 38.5352 23.714 38.6078 22.8047L38.9139 19.2208L39.085 17.3589C39.1092 17.0525 39.1508 16.7477 39.2095 16.446C39.2162 16.368 39.2389 16.2922 39.2764 16.2235C39.3139 16.1547 39.3653 16.0945 39.4273 16.0467C39.5692 15.9839 39.7234 15.9538 39.8785 15.9585C40.086 15.9585 40.3712 15.9585 40.7447 15.9845L40.8173 15.9326L40.8536 15.528L40.7914 15.4658C39.4169 15.3932 38.639 15.3517 38.4574 15.3361L36.1443 15.0716L36.0768 15.1235L36.0405 15.528L36.0976 15.5903C36.4597 15.6225 36.8186 15.6832 37.1712 15.7718C37.2802 15.8014 37.379 15.8607 37.4565 15.943C37.5152 16.0566 37.5438 16.1834 37.5394 16.3112C37.5394 16.4927 37.5394 16.8869 37.4824 17.5041L37.3631 19.0912L37.0675 22.5661C36.9897 23.4997 36.9067 24.2932 36.8133 24.9467C36.7836 25.2975 36.7211 25.6448 36.6266 25.984C36.4399 26.0867 36.2458 26.1751 36.0457 26.2485L35.9731 26.3263V26.596L36.0302 26.6634C36.6007 26.6634 37.1504 26.6945 37.6898 26.7412L40.06 26.9538C41.7301 27.0991 43.0769 27.2305 44.1003 27.348L44.1729 27.2858C44.204 26.9072 44.2715 26.4041 44.37 25.7869C44.4284 25.3682 44.508 24.9527 44.6086 24.5421L44.5567 24.4695L44.1418 24.4436Z" fill="white"/>
<path d="M56.7968 27.8148C56.7077 27.7725 56.6269 27.7145 56.5582 27.6436C56.4282 27.432 56.3238 27.2057 56.247 26.9694C56.1018 26.596 55.9773 26.2433 55.8684 25.9321L55.5002 24.8066L52.7254 16.3683L52.2068 16.3216C51.7123 17.2655 51.2162 18.2095 50.7183 19.1534L48.0887 23.9612L47.0825 25.7402C46.8993 26.0862 46.6895 26.4174 46.455 26.7308C46.3675 26.821 46.2558 26.884 46.1334 26.9124C45.8783 26.9403 45.6209 26.9403 45.3658 26.9124L45.2828 26.9694L45.2465 27.3895L45.3191 27.4621C45.926 27.4621 46.5276 27.4984 47.124 27.5503C47.7205 27.6022 48.2547 27.6696 48.9497 27.7681L49.0223 27.7111L49.0534 27.291L48.9912 27.2184C48.6189 27.2044 48.2505 27.1381 47.8968 27.0213C47.8324 26.997 47.7774 26.9526 47.74 26.8947C47.7027 26.8368 47.6849 26.7685 47.6894 26.6997C47.7453 26.418 47.8488 26.1479 47.9954 25.901L49.0327 23.899L53.7316 24.2984L54.5199 26.8553C54.5714 27.0108 54.5959 27.1739 54.5925 27.3376C54.5891 27.4036 54.5621 27.466 54.5164 27.5136C54.4706 27.5613 54.4093 27.5908 54.3436 27.597C53.9622 27.6295 53.5788 27.6295 53.1974 27.597L53.13 27.6592L53.0937 28.0793L53.1507 28.1519L55.8529 28.3023C56.3093 28.3438 56.8279 28.4112 57.4088 28.5098L57.4814 28.4475L57.5177 28.0274L57.4555 27.9548C57.231 27.9354 57.0098 27.8884 56.7968 27.8148ZM49.3905 23.2196L51.8748 18.5051L53.493 23.5671L49.3905 23.2196Z" fill="white"/>
<path d="M67.398 17.7219C66.4903 17.6856 64.9188 17.5767 62.6886 17.3848C60.4584 17.1929 58.9336 17.0477 58.0208 16.9232L57.943 16.9906C57.943 17.3917 57.8963 18.2423 57.803 19.5424L57.86 19.615L58.2335 19.6461L58.3112 19.5787L58.4565 18.837C58.4896 18.5414 58.5683 18.2527 58.6899 17.9812C58.7521 17.8983 58.9699 17.8568 59.333 17.8671C59.696 17.8775 60.1265 17.9034 60.6244 17.9449L61.8329 18.0487C61.7655 19.3764 61.7239 20.0818 61.7188 20.1699L61.3194 24.9L61.1586 26.6064C61.1379 26.9817 61.0859 27.3547 61.003 27.7214C60.9764 27.8396 60.9192 27.9488 60.8371 28.0378C60.7323 28.097 60.615 28.1308 60.4948 28.1364C60.1493 28.1584 59.8029 28.1584 59.4575 28.1364L59.3848 28.1779L59.3537 28.5876L59.4108 28.655L61.7291 28.7847L64.0423 29.0492L64.1046 28.9869L64.1408 28.5824L64.0838 28.5305C63.7214 28.4977 63.3624 28.4353 63.0102 28.3438C62.9011 28.3142 62.8024 28.255 62.7249 28.1727C62.663 28.0602 62.6343 27.9325 62.642 27.8044C62.642 27.6229 62.642 27.2287 62.6938 26.6167L62.8131 25.0297L63.2125 20.3048C63.2125 20.1129 63.311 19.4075 63.4562 18.1939L65.0122 18.3236C65.3822 18.3547 65.7141 18.3962 66.008 18.448C66.1885 18.4633 66.3644 18.5126 66.5266 18.5932C66.5795 18.6489 66.6139 18.7196 66.6252 18.7955C66.6252 18.8889 66.6563 19.1378 66.6667 19.5372L66.6926 20.2944L66.7496 20.3722L67.1282 20.4033L67.2009 20.3463C67.3046 19.1326 67.3979 18.2717 67.4913 17.8049L67.398 17.7219Z" fill="white"/>
<path d="M72.2421 18.1783C71.8583 18.1472 70.5202 18.0176 68.2278 17.7894L68.1603 17.8412L68.1241 18.2458L68.1863 18.308C68.5482 18.3412 68.9072 18.4019 69.2599 18.4895C69.367 18.5202 69.4638 18.5794 69.54 18.6607C69.6011 18.7734 69.6298 18.9009 69.6229 19.0289C69.6229 19.2104 69.6229 19.6046 69.5659 20.2218L69.4518 21.8089L69.1302 25.5639L68.9798 27.291C68.9539 27.659 68.9019 28.0247 68.8242 28.3853C68.7974 28.5034 68.7402 28.6125 68.6583 28.7017C68.5545 28.7633 68.4366 28.7972 68.316 28.8002C67.9706 28.8223 67.6241 28.8223 67.2787 28.8002L67.2061 28.8469L67.1749 29.2514L67.232 29.3189C68.6116 29.3915 69.3844 29.4382 69.5607 29.4537C69.737 29.4693 70.5098 29.5523 71.8791 29.713L71.9517 29.656L71.9828 29.2514L71.9257 29.1944C71.5634 29.1639 71.2043 29.1032 70.8521 29.0129C70.7469 28.9781 70.651 28.9195 70.5721 28.8417C70.51 28.7235 70.4797 28.5913 70.4839 28.4579C70.48 28.0648 70.4973 27.6718 70.5358 27.2806L70.6602 25.6987L70.8003 24.0546C71.0752 24.0546 71.4901 24.0857 72.0347 24.1324C72.4938 24.1626 72.9509 24.218 73.4039 24.2984C73.5971 24.3285 73.7866 24.3789 73.9692 24.4488C74.0139 24.4775 74.0519 24.5155 74.0806 24.5603C74.1092 24.605 74.1279 24.6555 74.1352 24.7081C74.1654 24.9071 74.1758 25.1087 74.1663 25.3097L74.1404 25.9995L74.1922 26.0721L74.5968 26.1033L74.6746 26.0462C74.6746 25.8024 74.7109 25.4601 74.7316 25.0089C74.7524 24.5577 74.7627 24.3191 74.7835 24.1117L74.9858 22.3431L74.9287 22.2653L74.5138 22.229L74.4515 22.2912L74.3686 22.7217C74.3384 22.9199 74.2881 23.1146 74.2182 23.3026C74.186 23.3782 74.1268 23.4392 74.0522 23.4737C73.8541 23.5122 73.6524 23.5296 73.4506 23.5256C73.054 23.529 72.6576 23.5117 72.2629 23.4737C72.0139 23.4737 71.5471 23.4115 70.8573 23.3389L70.9766 21.9385C71.1149 20.3031 71.2325 19.2779 71.3293 18.8629C71.8482 18.8475 72.3676 18.8597 72.8852 18.8993C73.6728 18.939 74.4495 19.0999 75.188 19.3764C75.2259 19.6515 75.2466 19.9286 75.2503 20.2062C75.2503 20.59 75.2503 20.8027 75.2503 20.839L75.3021 20.9064L75.6859 20.9427L75.7533 20.8805C75.8415 20.2581 75.9141 19.7758 75.966 19.4335C76.0146 19.1225 76.0981 18.8181 76.215 18.5258L76.1579 18.4636C74.8509 18.4013 73.5284 18.2873 72.2421 18.1783Z" fill="white"/>
<path d="M83.6783 18.8681C82.7638 18.7768 81.8403 18.8667 80.9606 19.1326C80.1663 19.378 79.4352 19.794 78.8186 20.3515C78.2361 20.859 77.7737 21.4897 77.4649 22.1978C76.8736 23.5773 76.7444 25.1111 77.0967 26.57C77.2594 27.3407 77.5886 28.0664 78.0613 28.6965C78.532 29.3222 79.1431 29.8286 79.8455 30.1746C80.5942 30.5403 81.4056 30.7603 82.2364 30.8229C83.4063 30.9416 84.5872 30.7632 85.6699 30.3043C86.685 29.8716 87.5507 29.1502 88.1594 28.2297C88.7906 27.2648 89.1638 26.1541 89.2434 25.0037C89.3459 24.2445 89.2837 23.4721 89.0608 22.7391C88.838 22.006 88.4597 21.3297 87.9519 20.756C86.8231 19.6006 85.2926 18.9245 83.6783 18.8681ZM87.4851 25.4083C87.4218 26.3414 87.1695 27.2519 86.7435 28.0845C86.3942 28.8057 85.8161 29.391 85.0994 29.7494C84.4406 30.0395 83.7242 30.1749 83.0049 30.1452C82.2857 30.1156 81.5828 29.9216 80.9502 29.5782C80.3976 29.2444 79.9305 28.7862 79.5862 28.2401C79.1916 27.6206 78.922 26.9299 78.7926 26.207C78.6517 25.497 78.6046 24.7716 78.6526 24.0494C78.7926 22.4416 79.2698 21.2591 80.0996 20.5019C80.5341 20.1198 81.0456 19.8354 81.5995 19.6681C82.1533 19.5008 82.7367 19.4543 83.31 19.532C84.1464 19.5919 84.9526 19.869 85.6491 20.3359C86.3692 20.8389 86.8991 21.5697 87.1532 22.4105C87.4711 23.3758 87.5842 24.3968 87.4851 25.4083Z" fill="white"/>
<path d="M99.6837 31.4972C99.5712 31.4625 99.4659 31.4081 99.3725 31.3364C99.0836 31.0213 98.8329 30.6731 98.6256 30.2991C98.247 29.7027 97.8944 29.1373 97.5883 28.6031L96.5511 26.9798C96.1984 26.43 95.9547 26.041 95.825 25.8128C96.5131 25.7721 97.1864 25.5959 97.8062 25.2942C98.2682 25.0466 98.6633 24.6906 98.9576 24.2569C99.223 23.8686 99.3838 23.4185 99.4244 22.9499C99.4557 22.6213 99.4204 22.2898 99.3205 21.9753C99.2207 21.6607 99.0585 21.3695 98.8435 21.1191C98.3975 20.6004 97.495 20.2529 96.1258 20.1388L95.2908 20.0818C94.2535 20.0351 93.4236 19.9832 92.8116 19.9314C92.1996 19.8795 91.4891 19.7965 90.5037 19.672L90.4362 19.7239L90.3999 20.1284L90.4621 20.1907C90.8228 20.2204 91.1803 20.2812 91.5306 20.3722C91.6419 20.3964 91.7421 20.4565 91.8158 20.5434C91.8748 20.655 91.9034 20.7802 91.8988 20.9064C91.8988 21.0879 91.8988 21.4873 91.8418 22.1045L91.7225 23.6604L91.4061 27.4154L91.2557 29.127C91.2287 29.5017 91.1767 29.8742 91.1001 30.2421C91.0735 30.3603 91.0163 30.4694 90.9341 30.5584C90.8273 30.6174 90.7084 30.6511 90.5866 30.657C90.2411 30.6762 89.8948 30.6762 89.5493 30.657L89.4819 30.6985L89.4508 31.103L89.5078 31.1756L91.8314 31.3053L92.7338 31.3986L94.1549 31.5698L94.2275 31.5076L94.2587 31.103L94.2016 31.0512C93.8393 31.0178 93.4803 30.9553 93.128 30.8644C93.018 30.8342 92.919 30.773 92.8428 30.6881C92.7847 30.5761 92.7561 30.4512 92.7598 30.3251C92.7536 29.9267 92.7709 29.5284 92.8116 29.1322L92.9361 27.5503L93.2525 23.7953C93.4132 21.8867 93.5429 20.8753 93.6311 20.7664C94.1655 20.6494 94.7149 20.6162 95.2596 20.6678C95.9486 20.6896 96.6108 20.9396 97.1423 21.3784C97.367 21.5911 97.5367 21.8551 97.637 22.1478C97.7372 22.4404 97.765 22.753 97.718 23.0588C97.7061 23.4108 97.6139 23.7555 97.4486 24.0665C97.2832 24.3775 97.0489 24.6466 96.7637 24.8533C96.0964 25.281 95.2973 25.4541 94.5128 25.3409C94.352 25.3409 94.1342 25.2994 93.8541 25.2631L93.7555 25.5068C94.6338 26.6997 95.4827 27.9825 96.3021 29.3552C97.0075 30.5429 97.5261 31.3831 97.8581 31.8654C98.3145 31.8654 98.7346 31.8914 99.1184 31.9225C99.4286 31.9461 99.7369 31.9894 100.042 32.0521L100.119 31.9847L100.15 31.6009L100.093 31.5335C99.9561 31.5337 99.8189 31.5216 99.6837 31.4972Z" fill="white"/>
<path d="M114.828 21.8037C114.31 21.757 113.791 21.6999 113.272 21.6325C112.958 22.2964 112.358 23.3786 111.473 24.8793L108.205 30.4236L105.669 23.8523C105.323 22.9706 104.977 21.9852 104.632 20.896C104.186 20.896 103.662 20.8545 103.076 20.8079C102.49 20.7612 101.94 20.699 101.566 20.6367L101.489 20.7041L101.457 21.0931L101.515 21.1657C101.903 21.1844 102.288 21.2488 102.661 21.3576C102.778 21.4121 102.87 21.5083 102.92 21.6273C102.968 22.0374 102.968 22.4516 102.92 22.8617C102.873 23.5723 102.832 24.1687 102.79 24.6614L102.474 28.3749C102.344 29.7545 102.261 30.5844 102.23 30.8644C102.221 31.0621 102.168 31.2552 102.075 31.4298C101.995 31.5315 101.88 31.6 101.753 31.6217C101.384 31.6593 101.012 31.6593 100.643 31.6217L100.571 31.6891L100.539 32.0781L100.597 32.1455C101.717 32.1974 102.365 32.2337 102.541 32.2492C102.925 32.2803 103.382 32.3322 103.916 32.4048L104.435 32.4722L104.512 32.4048L104.543 32.0158L104.486 31.9484C104.098 31.9291 103.713 31.863 103.34 31.7513C103.224 31.6981 103.132 31.6039 103.081 31.4868C103.027 31.0858 103.027 30.6794 103.081 30.2784C103.122 29.5886 103.169 28.9766 103.216 28.4475L103.693 22.7787L106.888 31.1601C107.048 31.5957 107.251 32.1714 107.495 32.8975H107.811C108.444 31.6493 109.173 30.3216 110 28.9143L113.298 23.2974L112.78 29.2514C112.652 30.593 112.569 31.4125 112.531 31.7098C112.521 31.9157 112.468 32.1172 112.375 32.3011C112.295 32.4009 112.18 32.4675 112.053 32.4878C111.683 32.5238 111.309 32.5238 110.938 32.4878L110.866 32.55L110.835 32.939L110.902 33.0065C111.97 33.0531 112.728 33.0894 113.174 33.1257C113.827 33.1828 114.59 33.271 115.471 33.3954L115.549 33.3384L115.58 32.939L115.523 32.8768C115.135 32.8553 114.75 32.7892 114.377 32.6797C114.318 32.654 114.265 32.617 114.22 32.5707C114.176 32.5244 114.141 32.4698 114.118 32.41C114.07 32.0138 114.07 31.6133 114.118 31.2171C114.159 30.5325 114.201 29.9205 114.247 29.3811L114.564 25.6417C114.704 24.288 114.787 23.4633 114.818 23.1729C114.826 22.9708 114.877 22.7727 114.968 22.592C115.049 22.4891 115.166 22.4206 115.295 22.4001C115.666 22.367 116.039 22.367 116.41 22.4001L116.477 22.3483L116.514 21.9541L116.441 21.8815C115.819 21.8711 115.285 21.84 114.828 21.8037Z" fill="white"/>
</svg>
