<svg width="50" height="50" viewBox="0 0 50 50" fill="none" xmlns="http://www.w3.org/2000/svg">
<path d="M45 0H5C2.23858 0 0 2.19468 0 4.90196V45.098C0 47.8053 2.23858 50 5 50H45C47.7614 50 50 47.8053 50 45.098V4.90196C50 2.19468 47.7614 0 45 0Z" fill="#3BC0DD"/>
<path d="M25.9741 37.1472C25.6741 36.8658 25.3611 36.5834 25.0621 36.2707C24.8231 36.505 24.5991 36.7246 24.3621 36.9432C21.4031 39.6491 18.3531 40.7756 16.5451 39.6805C14.7961 38.6325 14.2451 35.5364 14.9451 31.6413C15.0198 31.2191 15.1094 30.7968 15.2141 30.3746C14.9001 30.2766 14.6011 30.1864 14.3021 30.0805C10.5791 28.7325 8.12805 26.5432 8.12805 24.3531C8.12805 22.2423 10.4151 20.1932 13.9871 18.8795C14.3871 18.7383 14.8091 18.5982 15.2431 18.4727C15.1431 18.0658 15.0641 17.6746 14.9891 17.2962C14.2411 13.3423 14.7641 10.1834 16.5281 9.11971C18.3661 7.99324 21.4161 9.19814 24.4791 12.0285C24.6581 12.2001 24.8381 12.3883 25.0321 12.5756C25.3161 12.2942 25.5851 12.0129 25.8691 11.7629C28.7691 9.11579 31.6531 8.00893 33.4171 9.07265C35.2551 10.1668 35.7941 13.5452 34.9721 17.7217C34.9271 17.9883 34.872 18.2383 34.8081 18.506C35.1821 18.6158 35.555 18.7403 35.899 18.8658C39.546 20.1795 41.9081 22.2285 41.8781 24.3864C41.8781 26.5913 39.3521 28.7658 35.4781 30.1109C35.2691 30.1736 35.06 30.2521 34.85 30.3138C34.9401 30.6266 34.9991 30.9393 35.059 31.2521C35.8361 35.3031 35.2381 38.6187 33.4301 39.7138C32.9553 39.9941 32.4092 40.1368 31.8551 40.1256C30.1981 40.1227 28.0941 39.0531 25.9741 37.1472ZM28.9041 31.407C28.0455 32.7164 27.1019 33.9703 26.0791 35.1609C26.3631 35.455 26.6471 35.7246 26.9311 35.9746C29.3971 38.1952 31.6691 39.0246 32.7311 38.3834C33.0554 38.1096 33.3204 37.7748 33.5104 37.3987C33.7004 37.0227 33.8115 36.6131 33.8371 36.1942C34.0529 34.6421 33.992 33.0651 33.6571 31.5334C33.6121 31.2521 33.5571 30.9707 33.4781 30.6736C31.9721 31.0192 30.4439 31.2642 28.9041 31.407ZM16.3781 31.908C15.7661 35.2413 16.2141 37.7256 17.2781 38.3678C17.6551 38.5222 18.062 38.5935 18.4702 38.5765C18.8784 38.5596 19.2778 38.4549 19.6401 38.2697C21.0495 37.689 22.3331 36.8502 23.4221 35.7981C23.6461 35.6099 23.8551 35.3913 24.0801 35.1727C23.0348 33.9817 22.0662 32.7279 21.1801 31.4187C19.6461 31.2931 18.1228 31.0638 16.6211 30.7325C16.5281 31.1413 16.4531 31.5315 16.3781 31.908ZM25.0781 34.0972C25.736 33.3305 26.3931 32.4864 27.0511 31.5481C26.3931 31.5795 25.7061 31.5952 25.0181 31.5952C24.3301 31.5952 23.6881 31.5795 23.0451 31.5481C23.7171 32.4697 24.3901 33.3305 25.0771 34.0972H25.0781ZM21.9381 18.8325C21.3701 19.6923 20.8171 20.5972 20.2941 21.554C19.7711 22.4923 19.2941 23.4462 18.8591 24.3972C19.3081 25.3354 19.7861 26.2893 20.3091 27.2599C20.8321 28.1981 21.3851 29.1227 21.9531 29.9962C22.9391 30.0589 23.9711 30.0942 25.0171 30.0942C26.0631 30.0942 27.1091 30.0629 28.1111 29.9854C28.6491 29.1256 29.2021 28.2021 29.7261 27.2482C30.2501 26.2942 30.7421 25.3246 31.1761 24.3864C30.7421 23.4638 30.2491 22.5099 29.7261 21.555C29.2031 20.6001 28.6501 19.6923 28.0971 18.8334C27.0971 18.755 26.0641 18.708 25.0181 18.708C23.9721 18.708 22.9401 18.754 21.9381 18.8325ZM17.0061 29.2952C18.0316 29.5249 19.0696 29.6974 20.1151 29.8119C19.7561 29.2178 19.3981 28.6227 19.0541 27.9972C18.7251 27.3874 18.3961 26.7776 18.0971 26.1678C17.6641 27.2305 17.3051 28.2805 17.0061 29.2952ZM30.9811 27.9815C30.6371 28.607 30.2931 29.2011 29.9501 29.7805C31.0112 29.6502 32.0642 29.4623 33.1041 29.2178C32.7794 28.162 32.4002 27.1231 31.9681 26.105C31.6541 26.7305 31.3251 27.356 30.9811 27.9815ZM14.4501 20.3178C11.4011 21.4442 9.56305 23.0844 9.56305 24.3687C9.62118 24.7819 9.76196 25.1798 9.97733 25.5395C10.1927 25.8992 10.4785 26.2136 10.8181 26.4648C11.9847 27.4266 13.3225 28.1688 14.7641 28.654C15.0331 28.7521 15.3171 28.8266 15.6011 28.9207C16.0602 27.3823 16.6143 25.8727 17.2601 24.4001C16.613 22.9528 16.0638 21.4652 15.6161 19.9472C15.2128 20.0531 14.8241 20.1766 14.4501 20.3178ZM32.7901 24.3687C33.4534 25.8226 34.0212 27.3165 34.4901 28.8413C34.6851 28.7785 34.879 28.7158 35.0581 28.6531C38.3911 27.4962 40.4581 25.7285 40.4691 24.3521C40.4691 23.0697 38.5561 21.4109 35.4321 20.2854C35.1181 20.1766 34.7751 20.0668 34.4321 19.957C33.9792 21.4597 33.4309 22.9332 32.7901 24.3687ZM30.9671 20.7717C31.3111 21.3972 31.6401 22.008 31.9381 22.6178C32.3534 21.6211 32.7126 20.6029 33.0141 19.5678C31.9989 19.3259 30.971 19.1381 29.9351 19.005C30.2941 19.5825 30.6371 20.1619 30.9661 20.7717H30.9671ZM17.0211 19.555C17.3211 20.556 17.6791 21.5727 18.0971 22.6197C18.3971 22.0099 18.7251 21.4001 19.0541 20.7903C19.3831 20.1805 19.7261 19.5864 20.0851 19.007C19.0091 19.1452 17.9931 19.3325 17.0211 19.555ZM26.8111 12.908C26.5571 13.1423 26.3031 13.3923 26.0481 13.6432C27.086 14.8192 28.04 16.064 28.9031 17.3687C30.4242 17.5127 31.9327 17.7637 33.4171 18.1197C33.4771 17.8854 33.5171 17.6501 33.5671 17.4158C34.2671 13.8187 33.8361 11.0658 32.7001 10.3785C32.4508 10.2413 32.1679 10.1735 31.8821 10.1825C30.6611 10.1766 28.7871 11.1089 26.8111 12.905V12.908ZM17.2451 10.4178C16.1841 11.0589 15.7651 13.6236 16.3931 17.0021C16.4681 17.3619 16.5431 17.7207 16.6321 18.0962C18.1185 17.7532 19.6265 17.5076 21.1461 17.3609C22.0123 16.0545 22.9714 14.8096 24.0161 13.6354C23.8521 13.4629 23.6721 13.307 23.5081 13.1501C21.4281 11.2217 19.4281 10.204 18.1221 10.204C17.8152 10.1938 17.5114 10.2678 17.2451 10.4178ZM27.0201 17.2364C26.4037 16.362 25.7387 15.5215 25.0281 14.7187C24.3561 15.4844 23.6831 16.3295 23.0281 17.2364C23.6861 17.205 24.3431 17.1893 25.0161 17.1893C25.6891 17.1893 26.3631 17.2021 27.0211 17.2364H27.0201ZM22.0281 24.4315C22.0141 24.0295 22.0811 23.6288 22.2254 23.2523C22.3696 22.8757 22.5882 22.5308 22.8687 22.2373C23.1491 21.9437 23.4859 21.7074 23.8597 21.5417C24.2336 21.376 24.6371 21.2842 25.0471 21.2717C25.8744 21.2993 26.6569 21.6475 27.2228 22.2398C27.7887 22.8321 28.092 23.6203 28.0661 24.4315C28.0928 25.2433 27.7898 26.0324 27.2235 26.6254C26.6573 27.2184 25.8742 27.5669 25.0461 27.5942C24.6358 27.5817 24.2321 27.4899 23.8582 27.324C23.4842 27.1581 23.1473 26.9214 22.8669 26.6275C22.5865 26.3337 22.3681 25.9884 22.2241 25.6115C22.0802 25.2347 22.0135 24.8336 22.0281 24.4315Z" fill="#E6E6E6"/>
</svg>
