<svg width="425" height="42" viewBox="0 0 425 42" fill="none" xmlns="http://www.w3.org/2000/svg">
<path d="M194.581 0C194.581 9.91039 202.305 18.0342 212.113 18.7837V1.44738H215.034V18.7869C224.865 18.0568 232.611 9.92331 232.611 0H235.535C235.535 10.059 228.634 18.5236 219.268 21C228.634 23.4764 235.535 31.941 235.535 42H232.613C232.613 32.0767 224.863 23.9432 215.036 23.2131V40.5494H212.112V23.2163C202.306 23.9658 194.583 32.0896 194.583 42H191.659C191.659 31.9394 198.558 23.4764 207.924 21C198.558 18.522 191.659 10.059 191.659 0H194.581Z" fill="url(#paint0_linear_24_1056)"/>
<g opacity="0.3">
<path opacity="0.3" fill-rule="evenodd" clip-rule="evenodd" d="M264.053 22.105H424.198V24.3164H264.053V22.105ZM0.80188 22.105H160.947V24.3164H0.80188V22.105Z" fill="#D9B062"/>
</g>
<defs>
<linearGradient id="paint0_linear_24_1056" x1="200.805" y1="-0.87696" x2="226.565" y2="42.669" gradientUnits="userSpaceOnUse">
<stop stop-color="#E7DA9A"/>
<stop offset="0.51106" stop-color="#CDB373"/>
<stop offset="1" stop-color="#996E2D"/>
</linearGradient>
</defs>
</svg>
