<svg width="8" height="9" viewBox="0 0 8 9" fill="none" xmlns="http://www.w3.org/2000/svg">
<path d="M1.53587 7.05253C1.53587 7.05253 1.61519 7.57879 2.43644 7.78952C3.25769 8.00025 3.78749 8.34217 3.99963 9C4.21139 8.34217 4.74118 7.99988 5.56244 7.78952C6.38369 7.57916 6.46338 7.05253 6.46338 7.05253L6.8076 7.21048L8 5.89482C5.21822 3.63144 7.41708 1.00012 7.41708 1.00012L6.33206 0C5.35179 1.02614 4.00075 0.920961 4.00075 0.920961C4.00075 0.920961 2.64858 1.02614 1.66795 0L0.58292 1.00012C0.58292 1.00012 2.78178 3.63144 0 5.89482L1.19203 7.21048L1.53587 7.05253Z" fill="white"/>
</svg>
