<svg width="14" height="48" viewBox="0 0 14 48" fill="none" xmlns="http://www.w3.org/2000/svg">
<path d="M8.44251 32.1852H8.63907C10.1685 32.1852 11.4413 31.781 12.3245 30.9984C12.9707 30.426 13.7127 29.3633 13.5813 27.5587C13.4154 25.2712 11.7889 23.856 10.5101 23.0894C11.5236 22.2455 12.4756 21.0256 12.6562 19.3536C12.8761 17.3217 12.2533 15.5035 10.8024 13.9482C10.2249 14.2928 9.6028 14.5565 8.95357 14.732C9.07642 14.8303 9.19066 14.9187 9.22875 14.9544C9.68943 15.4065 11.0924 16.7774 10.8356 19.1533C10.6636 20.743 9.33071 21.7934 8.33809 22.3646C7.94743 18.6791 7.49044 16.049 7.28774 15.0342C6.97816 15.0625 6.66121 15.0784 6.33934 15.0784C5.89524 15.0785 5.45162 15.0493 5.01134 14.9912C5.77342 17.6323 6.28873 20.3384 6.55064 23.0747C5.9364 23.2282 5.24353 23.3622 4.89341 23.3388C4.78899 23.3388 2.3443 23.1287 1.89835 19.1202C1.52981 15.8033 3.02488 15.0268 3.08876 14.9961C3.08139 14.9961 3.28777 14.8254 3.47942 14.662C2.8238 14.4655 2.20079 14.1732 1.63054 13.7947C0.833253 14.4998 -0.290816 16.0895 0.0691315 19.3229C0.429079 22.5563 1.98189 24.1496 3.38605 24.8007C2.40326 26.496 2.15756 27.9948 2.6551 29.2564C3.19809 30.6348 4.56909 31.5758 6.62067 31.9788C6.45426 34.199 6.04183 36.3938 5.39095 38.5229C4.18457 42.5462 4.08383 45.2575 5.09365 46.5794C5.31202 46.8678 5.59625 47.0999 5.92259 47.2561C6.24893 47.4123 6.60791 47.4882 6.96956 47.4774H7.04449C9.01008 47.4283 10.0224 45.9344 10.4364 44.728C11.1808 44.6728 11.8737 44.1629 12.3159 43.1236C12.8442 41.8792 11.7336 40.1753 11.2951 39.5831C11.1145 38.7711 10.9806 37.5905 11.4019 36.6851C12.0899 35.2109 12.8946 34.9652 12.8995 34.9652L12.7619 34.4026C12.7324 34.41 12.2521 34.5389 11.6906 35.1716C11.5901 34.7388 11.3512 34.3507 11.0101 34.066L10.6735 34.5291C10.698 34.5475 11.2631 34.9935 11.1771 35.8977C11.0727 36.0738 10.9772 36.255 10.8909 36.4406C10.429 37.4357 10.5297 38.6618 10.7091 39.5487C10.0076 39.8878 8.63785 40.7182 8.10591 42.201C7.67225 43.4123 8.16733 43.9787 8.65996 44.2502C8.44251 44.8263 7.97078 45.6113 7.00887 45.6359C6.73123 45.6433 6.64032 45.5499 6.56784 45.4614C6.12927 44.8865 6.02239 42.8632 7.16612 39.0524C7.84039 36.8166 8.26839 34.5139 8.44251 32.1852ZM8.73735 24.2368C9.56412 24.5943 11.601 25.6742 11.7471 27.6901C11.8098 28.5501 11.5997 29.1852 11.1059 29.6225C10.5604 30.1053 9.6538 30.3523 8.54939 30.3412C8.60959 28.7442 8.59731 26.9972 8.52114 24.9985C8.51377 24.7811 8.50271 24.5673 8.49165 24.356C8.56905 24.3204 8.65136 24.2811 8.73735 24.2368ZM6.72017 30.1176C5.90323 29.926 4.72633 29.5034 4.36516 28.582C4.04084 27.7589 4.37376 26.5833 5.32338 25.1668C5.77846 25.1218 6.22994 25.0458 6.67472 24.9395C6.67472 24.9825 6.67472 25.0255 6.67472 25.0685C6.75334 26.9702 6.76931 28.6225 6.72017 30.1176Z" fill="white"/>
<path d="M2.07501 10.7628V12.7186C2.60102 13.0387 3.17387 13.2745 3.77278 13.4176V12.3734C3.77278 12.2665 3.81523 12.164 3.8908 12.0884C3.96637 12.0129 4.06886 11.9704 4.17572 11.9704C4.28259 11.9704 4.38508 12.0129 4.46065 12.0884C4.53621 12.164 4.57867 12.2665 4.57867 12.3734V13.5822C5.04653 13.6531 5.51954 13.6843 5.99266 13.6756V12.3734C5.99266 12.2665 6.03511 12.164 6.11068 12.0884C6.18624 12.0129 6.28874 11.9704 6.3956 11.9704C6.50247 11.9704 6.60496 12.0129 6.68053 12.0884C6.75609 12.164 6.79855 12.2665 6.79855 12.3734V13.6264C7.22349 13.5798 7.64494 13.5056 8.0602 13.4041V12.1142C8.0602 12.0073 8.10266 11.9048 8.17822 11.8292C8.25379 11.7537 8.35628 11.7112 8.46315 11.7112C8.57002 11.7112 8.67251 11.7537 8.74807 11.8292C8.82364 11.9048 8.86609 12.0073 8.86609 12.1142V13.1743C9.26705 13.0435 9.66072 12.8914 10.0454 12.7186V10.9348C11.0234 10.1397 11.7339 9.06368 12.0808 7.85195C12.4277 6.64023 12.3944 5.35123 11.9854 4.15904C11.5764 2.96685 10.8113 1.92891 9.79357 1.1854C8.77582 0.441884 7.55441 0.0286247 6.29429 0.00143358C5.03418 -0.0257575 3.79607 0.334428 2.7472 1.03334C1.69832 1.73226 0.889206 2.73624 0.429129 3.90968C-0.0309488 5.08311 -0.119821 6.36948 0.174514 7.59504C0.468848 8.8206 1.13221 9.92631 2.07501 10.7628ZM8.60688 5.89923C8.84043 5.89899 9.0688 5.96802 9.26311 6.09759C9.45742 6.22717 9.60893 6.41147 9.69847 6.62717C9.78801 6.84287 9.81157 7.08029 9.76615 7.30938C9.72074 7.53847 9.6084 7.74894 9.44334 7.91417C9.27828 8.0794 9.06793 8.19196 8.83888 8.23761C8.60984 8.28327 8.3724 8.25996 8.15661 8.17064C7.94081 8.08132 7.75636 7.93 7.62658 7.73583C7.4968 7.54166 7.42753 7.31336 7.42753 7.07981C7.42737 6.92462 7.45784 6.77093 7.51719 6.62754C7.57653 6.48416 7.6636 6.35389 7.77339 6.24422C7.88318 6.13454 8.01353 6.04761 8.15698 5.98841C8.30043 5.92921 8.45415 5.89891 8.60934 5.89923H8.60688ZM6.16342 8.45572L7.08478 10.124H5.32927L6.16342 8.45572ZM3.60325 6.07244C3.80248 6.07244 3.99725 6.13153 4.1629 6.24222C4.32856 6.35291 4.45768 6.51024 4.53393 6.69431C4.61017 6.87838 4.63012 7.08092 4.59125 7.27633C4.55238 7.47174 4.45644 7.65124 4.31556 7.79212C4.17468 7.933 3.99518 8.02895 3.79977 8.06782C3.60436 8.10669 3.40182 8.08673 3.21775 8.01049C3.03368 7.93424 2.87635 7.80513 2.76566 7.63947C2.65497 7.47381 2.59589 7.27905 2.59589 7.07981C2.59589 6.81264 2.70202 6.55641 2.89093 6.3675C3.07985 6.17858 3.33608 6.07244 3.60325 6.07244Z" fill="white"/>
</svg>
