<svg width="56" height="56" viewBox="0 0 56 56" fill="none" xmlns="http://www.w3.org/2000/svg">
<path d="M21 16.3333V11.6667C21 9.08833 23.0883 7 25.6667 7H42C44.5783 7 46.6667 9.08833 46.6667 11.6667V37.4337C46.6667 39.2047 44.772 40.3293 43.2157 39.4823L35 35" stroke="#E4E5EE" stroke-width="3" stroke-linecap="round" stroke-linejoin="round"/>
<path fill-rule="evenodd" clip-rule="evenodd" d="M9.33325 21V46.6574C9.33325 48.4284 11.2163 49.56 12.7726 48.713C16.5736 46.6387 22.1666 43.589 22.1666 43.589C22.1666 43.589 27.7596 46.641 31.5606 48.713C33.1169 49.56 34.9999 48.4284 34.9999 46.6574V21C34.9999 18.4217 32.9116 16.3334 30.3333 16.3334H13.9999C11.4239 16.3334 9.33325 18.4217 9.33325 21Z" stroke="#E4E5EE" stroke-width="3" stroke-linecap="round" stroke-linejoin="round"/>
</svg>
