<svg width="7" height="23" viewBox="0 0 7 23" fill="none" xmlns="http://www.w3.org/2000/svg">
<path d="M6.23438 3.29688C6.23438 1.79283 5.00404 0.5625 3.5 0.5625C1.99596 0.5625 0.765625 1.79283 0.765625 3.29688C0.765625 4.80092 1.99596 6.03125 3.5 6.03125C5.00404 6.03125 6.23438 4.80092 6.23438 3.29688ZM6.23438 19.7031C6.23438 18.1991 5.00404 16.9688 3.5 16.9688C1.99596 16.9688 0.765625 18.1991 0.765625 19.7031C0.765625 21.2072 1.99596 22.4375 3.5 22.4375C5.00404 22.4375 6.23438 21.2072 6.23438 19.7031ZM6.23438 11.5C6.23438 9.99596 5.00404 8.76562 3.5 8.76562C1.99596 8.76562 0.765625 9.99596 0.765625 11.5C0.765625 13.004 1.99596 14.2344 3.5 14.2344C5.00404 14.2344 6.23438 13.004 6.23438 11.5Z" fill="white"/>
</svg>
